<?xml version="1.0" encoding="UTF-8" standalone="no"?>
<!-- Created with matplotlib (http://matplotlib.org/) -->

<svg
   xmlns:dc="http://purl.org/dc/elements/1.1/"
   xmlns:cc="http://creativecommons.org/ns#"
   xmlns:rdf="http://www.w3.org/1999/02/22-rdf-syntax-ns#"
   xmlns:svg="http://www.w3.org/2000/svg"
   xmlns="http://www.w3.org/2000/svg"
   xmlns:xlink="http://www.w3.org/1999/xlink"
   xmlns:sodipodi="http://sodipodi.sourceforge.net/DTD/sodipodi-0.dtd"
   xmlns:inkscape="http://www.inkscape.org/namespaces/inkscape"
   height="432pt"
   version="1.1"
   viewBox="0 0 576 432"
   width="576pt"
   id="svg2"
   inkscape:version="0.48.4 r9939"
   sodipodi:docname="lookAt.svg">
  <metadata
     id="metadata236">
    <rdf:RDF>
      <cc:Work
         rdf:about="">
        <dc:format>image/svg+xml</dc:format>
        <dc:type
           rdf:resource="http://purl.org/dc/dcmitype/StillImage" />
      </cc:Work>
    </rdf:RDF>
  </metadata>
  <sodipodi:namedview
     pagecolor="#ffffff"
     bordercolor="#666666"
     borderopacity="1"
     objecttolerance="10"
     gridtolerance="10"
     guidetolerance="10"
     inkscape:pageopacity="0"
     inkscape:pageshadow="2"
     inkscape:window-width="1855"
     inkscape:window-height="1056"
     id="namedview234"
     showgrid="false"
     inkscape:zoom="1.1470843"
     inkscape:cx="472.492"
     inkscape:cy="229.06687"
     inkscape:window-x="65"
     inkscape:window-y="24"
     inkscape:window-maximized="1"
     inkscape:current-layer="figure_1" />
  <defs
     id="defs4">
    <style
       type="text/css"
       id="style6">
*{stroke-linecap:butt;stroke-linejoin:round;}
  </style>
  </defs>
  <g
     id="figure_1">
    <g
       id="patch_1">
      <path
         d=" M0 432 L576 432 L576 0 L0 0 z "
         style="fill:#ffffff;"
         id="path10" />
    </g>
    <g
       id="axes_1">
      <g
         id="patch_2">
        <path
           d=" M295.2 388.8 C341.027 388.8 384.983 370.593 417.388 338.188 C449.793 305.783 468 261.827 468 216 C468 170.173 449.793 126.217 417.388 93.8119 C384.983 61.4073 341.027 43.2 295.2 43.2 C249.373 43.2 205.417 61.4073 173.012 93.8119 C140.607 126.217 122.4 170.173 122.4 216 C122.4 261.827 140.607 305.783 173.012 338.188 C205.417 370.593 249.373 388.8 295.2 388.8 z "
           style="fill:#ffffff;"
           id="path14" />
      </g>
      <g
         id="patch_3">
        <path
           clip-path="url(#p51f193bd26)"
           d=" M295.2 216 L295.2 216 L295.2 216 L295.2 216 L295.2 216 L295.2 216 L295.2 216 L295.2 216 L295.2 216 L295.2 216 L295.2 216 L295.2 216 L295.2 216 L295.2 216 L295.2 216 L295.2 216 L295.2 216 L295.2 216 L295.2 216 L295.2 216 L295.2 216 L295.2 216 L295.2 216 L295.2 216 L295.2 216 L295.2 216 L295.2 216 L295.2 216 L295.2 216 L295.2 216 L295.2 216 L295.2 216 L295.2 216 L295.2 216 L295.2 216 L295.2 216 L295.2 216 L295.2 216 L295.2 216 L295.2 216 L295.2 216 L295.2 216 L295.2 216 L295.2 216 L295.2 216 L295.2 216 L295.2 216 L295.2 216 L295.2 216 L295.2 216 L295.2 216 L295.2 216 L295.2 216 L295.2 216 L295.2 216 L295.2 216 L295.2 216 L295.2 216 L295.2 216 L295.2 216 L295.2 216 L295.2 216 L295.2 216 L295.2 216 L295.2 216 L295.2 216 L295.2 216 L295.2 216 L295.2 216 L295.2 216 L295.2 216 L295.2 216 L295.2 216 L295.2 216 L295.2 216 L295.2 216 L295.2 216 L295.2 216 L295.2 216 L295.2 216 L295.2 216 L295.2 216 L295.2 216 L295.2 216 L295.2 216 L295.2 216 L295.2 216 L295.2 216 L295.2 216 L295.2 216 L295.2 216 L295.2 216 L295.2 216 L295.2 216 L295.2 216 L295.2 216 L295.2 216 L295.2 216 L295.2 216 L295.2 216 L295.2 216 L295.528 215.872 L295.857 215.743 L296.185 215.615 L296.513 215.486 L296.841 215.358 L297.17 215.229 L297.498 215.101 L297.826 214.973 L298.155 214.844 L298.483 214.716 L298.811 214.587 L299.139 214.459 L299.468 214.33 L299.796 214.202 L300.124 214.073 L300.453 213.945 L300.781 213.817 L301.109 213.688 L301.437 213.56 L301.766 213.431 L302.094 213.303 L302.422 213.174 L302.75 213.046 L303.079 212.918 L303.407 212.789 L303.735 212.661 L304.064 212.532 L304.392 212.404 L304.72 212.275 L305.048 212.147 L305.377 212.018 L305.705 211.89 L306.033 211.762 L306.362 211.633 L306.69 211.505 L307.018 211.376 L307.346 211.248 L307.675 211.119 L308.003 210.991 L308.331 210.863 L308.66 210.734 L308.988 210.606 L309.316 210.477 L309.644 210.349 L309.973 210.22 L310.301 210.092 L310.629 209.963 L310.958 209.835 L311.286 209.707 L311.614 209.578 L311.942 209.45 L312.271 209.321 L312.599 209.193 L312.927 209.064 L313.255 208.936 L313.584 208.808 L313.912 208.679 L314.24 208.551 L314.569 208.422 L314.897 208.294 L315.225 208.165 L315.553 208.037 L315.882 207.909 L316.21 207.78 L316.538 207.652 L316.867 207.523 L317.195 207.395 L317.523 207.266 L317.851 207.138 L318.18 207.009 L318.508 206.881 L318.836 206.753 L319.165 206.624 L319.493 206.496 L319.821 206.367 L320.149 206.239 L320.478 206.11 L320.806 205.982 L321.134 205.854 L321.463 205.725 L321.791 205.597 L322.119 205.468 L322.447 205.34 L322.776 205.211 L323.104 205.083 L323.432 204.954 L323.761 204.826 L324.089 204.698 L324.417 204.569 L324.745 204.441 L325.074 204.312 L325.402 204.184 L325.73 204.055 L326.058 203.927 L326.387 203.799 L326.715 203.67 L327.043 203.542 L327.372 203.413 L327.7 203.285 L328.028 203.156 L328.076 203.279 L328.123 203.402 L328.17 203.524 L328.216 203.647 L328.262 203.771 L328.307 203.894 L328.352 204.018 L328.397 204.141 L328.441 204.265 L328.484 204.389 L328.527 204.513 L328.57 204.638 L328.612 204.762 L328.654 204.887 L328.695 205.012 L328.736 205.137 L328.776 205.262 L328.816 205.387 L328.855 205.513 L328.894 205.638 L328.932 205.764 L328.97 205.89 L329.008 206.016 L329.045 206.142 L329.081 206.268 L329.117 206.395 L329.153 206.521 L329.188 206.648 L329.223 206.775 L329.257 206.902 L329.291 207.029 L329.324 207.156 L329.357 207.283 L329.389 207.411 L329.421 207.538 L329.452 207.666 L329.483 207.794 L329.513 207.922 L329.543 208.05 L329.572 208.178 L329.601 208.306 L329.63 208.434 L329.658 208.563 L329.685 208.692 L329.712 208.82 L329.739 208.949 L329.765 209.078 L329.79 209.207 L329.816 209.336 L329.84 209.465 L329.864 209.594 L329.888 209.723 L329.911 209.853 L329.934 209.982 L329.956 210.112 L329.978 210.242 L329.999 210.371 L330.02 210.501 L330.04 210.631 L330.06 210.761 L330.079 210.891 L330.098 211.021 L330.116 211.151 L330.134 211.282 L330.151 211.412 L330.168 211.542 L330.185 211.673 L330.2 211.803 L330.216 211.934 L330.231 212.064 L330.245 212.195 L330.259 212.326 L330.273 212.457 L330.286 212.587 L330.298 212.718 L330.31 212.849 L330.322 212.98 L330.333 213.111 L330.343 213.242 L330.353 213.373 L330.363 213.504 L330.372 213.635 L330.38 213.767 L330.388 213.898 L330.396 214.029 L330.403 214.16 L330.41 214.292 L330.416 214.423 L330.422 214.554 L330.427 214.686 L330.431 214.817 L330.436 214.948 L330.439 215.08 L330.442 215.211 L330.445 215.343 L330.447 215.474 L330.449 215.606 L330.45 215.737 L330.451 215.869 L330.451 216 L330.099 216 L329.746 216 L329.394 216 L329.041 216 L328.689 216 L328.336 216 L327.984 216 L327.631 216 L327.279 216 L326.926 216 L326.574 216 L326.221 216 L325.869 216 L325.516 216 L325.164 216 L324.811 216 L324.458 216 L324.106 216 L323.753 216 L323.401 216 L323.048 216 L322.696 216 L322.343 216 L321.991 216 L321.638 216 L321.286 216 L320.933 216 L320.581 216 L320.228 216 L319.876 216 L319.523 216 L319.171 216 L318.818 216 L318.466 216 L318.113 216 L317.761 216 L317.408 216 L317.056 216 L316.703 216 L316.351 216 L315.998 216 L315.646 216 L315.293 216 L314.941 216 L314.588 216 L314.236 216 L313.883 216 L313.531 216 L313.178 216 L312.826 216 L312.473 216 L312.121 216 L311.768 216 L311.416 216 L311.063 216 L310.711 216 L310.358 216 L310.006 216 L309.653 216 L309.3 216 L308.948 216 L308.595 216 L308.243 216 L307.89 216 L307.538 216 L307.185 216 L306.833 216 L306.48 216 L306.128 216 L305.775 216 L305.423 216 L305.07 216 L304.718 216 L304.365 216 L304.013 216 L303.66 216 L303.308 216 L302.955 216 L302.603 216 L302.25 216 L301.898 216 L301.545 216 L301.193 216 L300.84 216 L300.488 216 L300.135 216 L299.783 216 L299.43 216 L299.078 216 L298.725 216 L298.373 216 L298.02 216 L297.668 216 L297.315 216 L296.963 216 L296.61 216 L296.258 216 L295.905 216 L295.553 216 z "
           style="fill:#800000;opacity:0.5;stroke:#000000;"
           id="path17" />
      </g>
      <g
         id="patch_4">
        <path
           clip-path="url(#p51f193bd26)"
           d=" M295.2 216 L295.2 216 L295.2 216 L295.2 216 L295.2 216 L295.2 216 L295.2 216 L295.2 216 L295.2 216 L295.2 216 L295.2 216 L295.2 216 L295.2 216 L295.2 216 L295.2 216 L295.2 216 L295.2 216 L295.2 216 L295.2 216 L295.2 216 L295.2 216 L295.2 216 L295.2 216 L295.2 216 L295.2 216 L295.2 216 L295.2 216 L295.2 216 L295.2 216 L295.2 216 L295.2 216 L295.2 216 L295.2 216 L295.2 216 L295.2 216 L295.2 216 L295.2 216 L295.2 216 L295.2 216 L295.2 216 L295.2 216 L295.2 216 L295.2 216 L295.2 216 L295.2 216 L295.2 216 L295.2 216 L295.2 216 L295.2 216 L295.2 216 L295.2 216 L295.2 216 L295.2 216 L295.2 216 L295.2 216 L295.2 216 L295.2 216 L295.2 216 L295.2 216 L295.2 216 L295.2 216 L295.2 216 L295.2 216 L295.2 216 L295.2 216 L295.2 216 L295.2 216 L295.2 216 L295.2 216 L295.2 216 L295.2 216 L295.2 216 L295.2 216 L295.2 216 L295.2 216 L295.2 216 L295.2 216 L295.2 216 L295.2 216 L295.2 216 L295.2 216 L295.2 216 L295.2 216 L295.2 216 L295.2 216 L295.2 216 L295.2 216 L295.2 216 L295.2 216 L295.2 216 L295.2 216 L295.2 216 L295.2 216 L295.2 216 L295.2 216 L295.2 216 L295.2 216 L295.2 216 L295.2 216 L295.2 216 L295.2 216 L294.779 214.698 L294.359 213.395 L293.938 212.093 L293.518 210.791 L293.097 209.488 L292.677 208.186 L292.256 206.883 L291.836 205.581 L291.415 204.279 L290.995 202.976 L290.574 201.674 L290.154 200.372 L289.733 199.069 L289.312 197.767 L288.892 196.465 L288.471 195.162 L288.051 193.86 L287.63 192.557 L287.21 191.255 L286.789 189.953 L286.369 188.65 L285.948 187.348 L285.528 186.046 L285.107 184.743 L284.687 183.441 L284.266 182.139 L283.846 180.836 L283.425 179.534 L283.004 178.231 L282.584 176.929 L282.163 175.627 L281.743 174.324 L281.322 173.022 L280.902 171.72 L280.481 170.417 L280.061 169.115 L279.64 167.813 L279.22 166.51 L278.799 165.208 L278.379 163.905 L277.958 162.603 L277.537 161.301 L277.117 159.998 L276.696 158.696 L276.276 157.394 L275.855 156.091 L275.435 154.789 L275.014 153.487 L274.594 152.184 L274.173 150.882 L273.753 149.579 L273.332 148.277 L272.912 146.975 L272.491 145.672 L272.071 144.37 L271.65 143.068 L271.229 141.765 L270.809 140.463 L270.388 139.161 L269.968 137.858 L269.547 136.556 L269.127 135.253 L268.706 133.951 L268.286 132.649 L267.865 131.346 L267.445 130.044 L267.024 128.742 L266.604 127.439 L266.183 126.137 L265.762 124.835 L265.342 123.532 L264.921 122.23 L264.501 120.927 L264.08 119.625 L263.66 118.323 L263.239 117.02 L262.819 115.718 L262.398 114.416 L261.978 113.113 L261.557 111.811 L261.137 110.509 L260.716 109.206 L260.295 107.904 L259.875 106.602 L259.454 105.299 L259.034 103.997 L258.613 102.694 L258.193 101.392 L257.772 100.09 L257.352 98.7873 L256.931 97.485 L256.511 96.1826 L256.09 94.8802 L255.67 93.5779 L255.249 92.2755 L254.829 90.9731 L254.408 89.6708 L253.987 88.3684 L253.567 87.0661 L253.146 85.7637 L253.963 85.5028 L254.781 85.247 L255.601 84.9964 L256.423 84.7508 L257.246 84.5105 L258.07 84.2753 L258.896 84.0453 L259.724 83.8204 L260.553 83.6008 L261.383 83.3863 L262.214 83.177 L263.047 82.973 L263.881 82.7742 L264.716 82.5806 L265.553 82.3922 L266.39 82.2091 L267.229 82.0312 L268.069 81.8586 L268.91 81.6913 L269.752 81.5292 L270.595 81.3724 L271.439 81.2209 L272.284 81.0747 L273.129 80.9338 L273.976 80.7982 L274.823 80.6678 L275.672 80.5428 L276.521 80.4232 L277.37 80.3088 L278.221 80.1998 L279.072 80.096 L279.924 79.9977 L280.776 79.9046 L281.629 79.8169 L282.482 79.7346 L283.336 79.6576 L284.191 79.5859 L285.045 79.5196 L285.901 79.4587 L286.756 79.4031 L287.612 79.3529 L288.468 79.3081 L289.325 79.2686 L290.182 79.2344 L291.039 79.2057 L291.896 79.1823 L292.753 79.1643 L293.61 79.1516 L294.468 79.1444 L295.325 79.1425 L296.182 79.1459 L297.04 79.1548 L297.897 79.169 L298.754 79.1886 L299.611 79.2135 L300.468 79.2438 L301.325 79.2795 L302.181 79.3206 L303.037 79.367 L303.893 79.4188 L304.749 79.4759 L305.604 79.5384 L306.458 79.6063 L307.313 79.6795 L308.166 79.758 L309.02 79.8419 L309.873 79.9312 L310.725 80.0258 L311.576 80.1257 L312.427 80.231 L313.277 80.3416 L314.127 80.4575 L314.976 80.5787 L315.824 80.7053 L316.671 80.8371 L317.517 80.9743 L318.363 81.1168 L319.207 81.2645 L320.051 81.4176 L320.894 81.5759 L321.735 81.7395 L322.576 81.9084 L323.415 82.0825 L324.254 82.2619 L325.091 82.4466 L325.927 82.6364 L326.762 82.8316 L327.596 83.0319 L328.428 83.2375 L329.259 83.4482 L330.089 83.6642 L330.917 83.8854 L331.744 84.1118 L332.57 84.3433 L333.394 84.58 L334.217 84.8219 L335.038 85.0689 L335.857 85.321 L336.675 85.5783 L337.491 85.8407 L337.068 87.1423 L336.645 88.4439 L336.223 89.7455 L335.8 91.0471 L335.377 92.3487 L334.954 93.6502 L334.531 94.9518 L334.108 96.2534 L333.685 97.555 L333.262 98.8566 L332.839 100.158 L332.416 101.46 L331.993 102.761 L331.571 104.063 L331.148 105.365 L330.725 106.666 L330.302 107.968 L329.879 109.269 L329.456 110.571 L329.033 111.873 L328.61 113.174 L328.187 114.476 L327.764 115.777 L327.341 117.079 L326.918 118.381 L326.496 119.682 L326.073 120.984 L325.65 122.285 L325.227 123.587 L324.804 124.888 L324.381 126.19 L323.958 127.492 L323.535 128.793 L323.112 130.095 L322.689 131.396 L322.266 132.698 L321.844 134 L321.421 135.301 L320.998 136.603 L320.575 137.904 L320.152 139.206 L319.729 140.508 L319.306 141.809 L318.883 143.111 L318.46 144.412 L318.037 145.714 L317.614 147.016 L317.191 148.317 L316.769 149.619 L316.346 150.92 L315.923 152.222 L315.5 153.524 L315.077 154.825 L314.654 156.127 L314.231 157.428 L313.808 158.73 L313.385 160.031 L312.962 161.333 L312.539 162.635 L312.117 163.936 L311.694 165.238 L311.271 166.539 L310.848 167.841 L310.425 169.143 L310.002 170.444 L309.579 171.746 L309.156 173.047 L308.733 174.349 L308.31 175.651 L307.887 176.952 L307.464 178.254 L307.042 179.555 L306.619 180.857 L306.196 182.159 L305.773 183.46 L305.35 184.762 L304.927 186.063 L304.504 187.365 L304.081 188.667 L303.658 189.968 L303.235 191.27 L302.812 192.571 L302.39 193.873 L301.967 195.175 L301.544 196.476 L301.121 197.778 L300.698 199.079 L300.275 200.381 L299.852 201.682 L299.429 202.984 L299.006 204.286 L298.583 205.587 L298.16 206.889 L297.737 208.19 L297.315 209.492 L296.892 210.794 L296.469 212.095 L296.046 213.397 L295.623 214.698 z "
           style="fill:#800000;opacity:0.5;stroke:#000000;"
           id="path20" />
      </g>
      <g
         id="patch_5">
        <path
           clip-path="url(#p51f193bd26)"
           d=" M295.2 216 L295.2 216 L295.2 216 L295.2 216 L295.2 216 L295.2 216 L295.2 216 L295.2 216 L295.2 216 L295.2 216 L295.2 216 L295.2 216 L295.2 216 L295.2 216 L295.2 216 L295.2 216 L295.2 216 L295.2 216 L295.2 216 L295.2 216 L295.2 216 L295.2 216 L295.2 216 L295.2 216 L295.2 216 L295.2 216 L295.2 216 L295.2 216 L295.2 216 L295.2 216 L295.2 216 L295.2 216 L295.2 216 L295.2 216 L295.2 216 L295.2 216 L295.2 216 L295.2 216 L295.2 216 L295.2 216 L295.2 216 L295.2 216 L295.2 216 L295.2 216 L295.2 216 L295.2 216 L295.2 216 L295.2 216 L295.2 216 L295.2 216 L295.2 216 L295.2 216 L295.2 216 L295.2 216 L295.2 216 L295.2 216 L295.2 216 L295.2 216 L295.2 216 L295.2 216 L295.2 216 L295.2 216 L295.2 216 L295.2 216 L295.2 216 L295.2 216 L295.2 216 L295.2 216 L295.2 216 L295.2 216 L295.2 216 L295.2 216 L295.2 216 L295.2 216 L295.2 216 L295.2 216 L295.2 216 L295.2 216 L295.2 216 L295.2 216 L295.2 216 L295.2 216 L295.2 216 L295.2 216 L295.2 216 L295.2 216 L295.2 216 L295.2 216 L295.2 216 L295.2 216 L295.2 216 L295.2 216 L295.2 216 L295.2 216 L295.2 216 L295.2 216 L295.2 216 L295.2 216 L295.2 216 L295.2 216 L295.2 216 L293.871 215.49 L292.541 214.98 L291.212 214.47 L289.882 213.96 L288.553 213.45 L287.223 212.941 L285.894 212.431 L284.564 211.921 L283.235 211.411 L281.906 210.901 L280.576 210.391 L279.247 209.881 L277.917 209.371 L276.588 208.861 L275.258 208.351 L273.929 207.842 L272.6 207.332 L271.27 206.822 L269.941 206.312 L268.611 205.802 L267.282 205.292 L265.952 204.782 L264.623 204.272 L263.293 203.762 L261.964 203.252 L260.635 202.743 L259.305 202.233 L257.976 201.723 L256.646 201.213 L255.317 200.703 L253.987 200.193 L252.658 199.683 L251.328 199.173 L249.999 198.663 L248.67 198.153 L247.34 197.644 L246.011 197.134 L244.681 196.624 L243.352 196.114 L242.022 195.604 L240.693 195.094 L239.364 194.584 L238.034 194.074 L236.705 193.564 L235.375 193.054 L234.046 192.545 L232.716 192.035 L231.387 191.525 L230.057 191.015 L228.728 190.505 L227.399 189.995 L226.069 189.485 L224.74 188.975 L223.41 188.465 L222.081 187.955 L220.751 187.445 L219.422 186.936 L218.092 186.426 L216.763 185.916 L215.434 185.406 L214.104 184.896 L212.775 184.386 L211.445 183.876 L210.116 183.366 L208.786 182.856 L207.457 182.346 L206.128 181.837 L204.798 181.327 L203.469 180.817 L202.139 180.307 L200.81 179.797 L199.48 179.287 L198.151 178.777 L196.821 178.267 L195.492 177.757 L194.163 177.247 L192.833 176.738 L191.504 176.228 L190.174 175.718 L188.845 175.208 L187.515 174.698 L186.186 174.188 L184.856 173.678 L183.527 173.168 L182.198 172.658 L180.868 172.148 L179.539 171.639 L178.209 171.129 L176.88 170.619 L175.55 170.109 L174.221 169.599 L172.892 169.089 L171.562 168.579 L170.233 168.069 L168.903 167.559 L167.574 167.049 L166.244 166.539 L164.915 166.03 L163.585 165.52 L162.256 165.01 L162.39 164.662 L162.525 164.314 L162.661 163.966 L162.798 163.619 L162.936 163.272 L163.074 162.926 L163.214 162.58 L163.354 162.234 L163.496 161.889 L163.638 161.544 L163.781 161.199 L163.925 160.855 L164.07 160.511 L164.216 160.167 L164.363 159.824 L164.51 159.482 L164.659 159.139 L164.808 158.797 L164.959 158.456 L165.11 158.115 L165.262 157.774 L165.415 157.434 L165.569 157.094 L165.724 156.754 L165.88 156.415 L166.036 156.076 L166.194 155.738 L166.352 155.4 L166.511 155.063 L166.672 154.726 L166.833 154.389 L166.994 154.053 L167.157 153.717 L167.321 153.382 L167.485 153.047 L167.651 152.712 L167.817 152.378 L167.984 152.045 L168.152 151.711 L168.321 151.379 L168.491 151.046 L168.662 150.714 L168.833 150.383 L169.006 150.052 L169.179 149.722 L169.353 149.392 L169.528 149.062 L169.704 148.733 L169.881 148.404 L170.058 148.076 L170.237 147.748 L170.416 147.421 L170.596 147.094 L170.777 146.768 L170.959 146.442 L171.142 146.117 L171.325 145.792 L171.51 145.467 L171.695 145.143 L171.881 144.82 L172.068 144.497 L172.256 144.175 L172.445 143.853 L172.634 143.531 L172.824 143.21 L173.016 142.89 L173.208 142.57 L173.401 142.25 L173.594 141.931 L173.789 141.613 L173.984 141.295 L174.18 140.978 L174.377 140.661 L174.575 140.344 L174.774 140.028 L174.973 139.713 L175.174 139.398 L175.375 139.084 L175.577 138.77 L175.78 138.457 L175.983 138.144 L176.188 137.832 L176.393 137.52 L176.599 137.209 L176.806 136.899 L177.014 136.589 L177.222 136.279 L177.432 135.97 L177.642 135.662 L177.853 135.354 L178.065 135.047 L178.277 134.74 L178.49 134.434 L178.705 134.129 L178.92 133.824 L179.135 133.519 L179.352 133.215 L179.569 132.912 L179.787 132.609 L180.006 132.307 L181.158 133.144 L182.31 133.981 L183.462 134.818 L184.614 135.655 L185.766 136.492 L186.918 137.328 L188.07 138.165 L189.222 139.002 L190.374 139.839 L191.526 140.676 L192.678 141.513 L193.83 142.35 L194.982 143.187 L196.133 144.024 L197.285 144.861 L198.437 145.698 L199.589 146.535 L200.741 147.372 L201.893 148.209 L203.045 149.046 L204.197 149.882 L205.349 150.719 L206.501 151.556 L207.653 152.393 L208.805 153.23 L209.957 154.067 L211.109 154.904 L212.261 155.741 L213.412 156.578 L214.564 157.415 L215.716 158.252 L216.868 159.089 L218.02 159.926 L219.172 160.763 L220.324 161.599 L221.476 162.436 L222.628 163.273 L223.78 164.11 L224.932 164.947 L226.084 165.784 L227.236 166.621 L228.388 167.458 L229.54 168.295 L230.692 169.132 L231.843 169.969 L232.995 170.806 L234.147 171.643 L235.299 172.48 L236.451 173.317 L237.603 174.153 L238.755 174.99 L239.907 175.827 L241.059 176.664 L242.211 177.501 L243.363 178.338 L244.515 179.175 L245.667 180.012 L246.819 180.849 L247.971 181.686 L249.123 182.523 L250.274 183.36 L251.426 184.197 L252.578 185.034 L253.73 185.87 L254.882 186.707 L256.034 187.544 L257.186 188.381 L258.338 189.218 L259.49 190.055 L260.642 190.892 L261.794 191.729 L262.946 192.566 L264.098 193.403 L265.25 194.24 L266.402 195.077 L267.554 195.914 L268.705 196.751 L269.857 197.588 L271.009 198.424 L272.161 199.261 L273.313 200.098 L274.465 200.935 L275.617 201.772 L276.769 202.609 L277.921 203.446 L279.073 204.283 L280.225 205.12 L281.377 205.957 L282.529 206.794 L283.681 207.631 L284.833 208.468 L285.985 209.305 L287.136 210.141 L288.288 210.978 L289.44 211.815 L290.592 212.652 L291.744 213.489 L292.896 214.326 L294.048 215.163 z "
           style="fill:#800000;opacity:0.5;stroke:#000000;"
           id="path23" />
      </g>
      <g
         id="matplotlib.axis_1">
        <g
           id="xtick_1">
          <g
             id="line2d_1">
            <path
               clip-path="url(#p51f193bd26)"
               d=" M295.2 216 L468 216"
               style="fill:none;stroke:#000000;stroke-dasharray:1.000000,3.000000;stroke-dashoffset:0.0;stroke-width:0.5;"
               id="path28" />
          </g>
          <g
             id="text_1"
             transform="matrix(1.528807,0,0,1.528807,-253.94386,-116.06355)"
             style="stroke-linecap:butt;stroke-linejoin:round">
            <!-- 0° -->
            <defs
               id="defs31">
              <path
                 d="m 31.7812,66.4062 q -7.6093,0 -11.4531,-7.5 Q 16.5,51.4219 16.5,36.375 q 0,-14.9844 3.8281,-22.4844 3.8438,-7.49998 11.4531,-7.49998 7.6719,0 11.5,7.49998 3.8438,7.5 3.8438,22.4844 0,15.0469 -3.8438,22.5312 -3.8281,7.5 -11.5,7.5 m 0,7.8126 q 12.2657,0 18.7344,-9.7032 6.4688,-9.6875 6.4688,-28.1406 0,-18.4062 -6.4688,-28.10938 -6.4687,-9.6875 -18.7344,-9.6875 -12.25,0 -18.7187,9.6875 -6.46875,9.70318 -6.46875,28.10938 0,18.4531 6.46875,28.1406 6.4687,9.7032 18.7187,9.7032"
                 id="DejaVuSans-30"
                 inkscape:connector-curvature="0"
                 style="stroke-linecap:butt;stroke-linejoin:round" />
              <path
                 d="m 25,67.9219 q -3.9062,0 -6.5938,-2.7188 -2.6874,-2.7031 -2.6874,-6.6093 0,-3.8594 2.6874,-6.5157 2.6876,-2.6562 6.5938,-2.6562 3.9062,0 6.5938,2.6562 2.6874,2.6563 2.6874,6.5157 0,3.8593 -2.7187,6.5937 Q 28.8594,67.9219 25,67.9219 m 0,6.2969 q 3.125,0 6,-1.2032 2.8906,-1.1875 4.9844,-3.4375 2.25,-2.1875 3.375,-4.9843 1.125,-2.7813 1.125,-6 0,-6.4376 -4.5156,-10.9063 -4.5157,-4.4687 -11.0626,-4.4687 -6.5937,0 -11,4.3906 Q 9.51562,52 9.51562,58.5938 q 0,6.5468 4.48438,11.0781 4.5,4.5469 11,4.5469"
                 id="DejaVuSans-b0"
                 inkscape:connector-curvature="0"
                 style="stroke-linecap:butt;stroke-linejoin:round" />
            </defs>
            <g
               transform="matrix(0.12,0,0,-0.12,479.42906,219.31125)"
               id="g35"
               style="stroke-linecap:butt;stroke-linejoin:round">
              <use
                 xlink:href="#DejaVuSans-30"
                 id="use37"
                 style="stroke-linecap:butt;stroke-linejoin:round"
                 x="0"
                 y="0"
                 width="576"
                 height="432" />
              <use
                 x="63.623047"
                 xlink:href="#DejaVuSans-b0"
                 id="use39"
                 style="stroke-linecap:butt;stroke-linejoin:round"
                 y="0"
                 width="576"
                 height="432" />
            </g>
          </g>
        </g>
        <g
           id="xtick_2">
          <g
             id="line2d_2">
            <path
               clip-path="url(#p51f193bd26)"
               d=" M295.2 216 L417.388 93.8119"
               style="fill:none;stroke:#000000;stroke-dasharray:1.000000,3.000000;stroke-dashoffset:0.0;stroke-width:0.5;"
               id="path43" />
          </g>
          <g
             id="text_2"
             transform="matrix(1.528807,0,0,1.528807,-222.32268,-44.988264)"
             style="stroke-linecap:butt;stroke-linejoin:round">
            <!-- 45° -->
            <defs
               id="defs46">
              <path
                 d="m 10.7969,72.9062 38.7187,0 0,-8.3124 -29.6875,0 0,-17.8594 q 2.1407,0.7344 4.2813,1.0937 2.1562,0.3594 4.3125,0.3594 12.2031,0 19.3281,-6.6875 7.1406,-6.6875 7.1406,-18.1094 0,-11.7656 -7.3281,-18.29685 -7.3281,-6.51563 -20.6563,-6.51563 -4.5937,0 -9.3593,0.781255 -4.75,0.78125 -9.82815,2.343745 l 0,9.92188 q 4.39065,-2.39062 9.07815,-3.5625 4.6875,-1.17188 9.9062,-1.17188 8.4531,0 13.375,4.43748 4.9375,4.4375 4.9375,12.0625 0,7.6094 -4.9375,12.0469 -4.9219,4.4531 -13.375,4.4531 -3.9531,0 -7.8906,-0.875 -3.9219,-0.875 -8.0156,-2.7344 z"
                 id="DejaVuSans-35"
                 inkscape:connector-curvature="0"
                 style="stroke-linecap:butt;stroke-linejoin:round" />
              <path
                 d="m 37.7969,64.3125 -24.9063,-38.9219 24.9063,0 z m -2.5938,8.5937 12.4063,0 0,-47.5156 10.4062,0 0,-8.2031 -10.4062,0 0,-17.1875 -9.8125,0 0,17.1875 -32.90628,0 0,9.5156 z"
                 id="DejaVuSans-34"
                 inkscape:connector-curvature="0"
                 style="stroke-linecap:butt;stroke-linejoin:round" />
            </defs>
            <g
               transform="matrix(0.12,0,0,-0.12,419.83623,84.904393)"
               id="g50"
               style="stroke-linecap:butt;stroke-linejoin:round">
              <use
                 xlink:href="#DejaVuSans-34"
                 id="use52"
                 style="stroke-linecap:butt;stroke-linejoin:round"
                 x="0"
                 y="0"
                 width="576"
                 height="432" />
              <use
                 x="63.623047"
                 xlink:href="#DejaVuSans-35"
                 id="use54"
                 style="stroke-linecap:butt;stroke-linejoin:round"
                 y="0"
                 width="576"
                 height="432" />
              <use
                 x="127.24609"
                 xlink:href="#DejaVuSans-b0"
                 id="use56"
                 style="stroke-linecap:butt;stroke-linejoin:round"
                 y="0"
                 width="576"
                 height="432" />
            </g>
          </g>
        </g>
        <g
           id="xtick_3">
          <g
             id="line2d_3">
            <path
               clip-path="url(#p51f193bd26)"
               d=" M295.2 216 L295.2 43.2"
               style="fill:none;stroke:#000000;stroke-dasharray:1.000000,3.000000;stroke-dashoffset:0.0;stroke-width:0.5;"
               id="path60" />
          </g>
          <g
             id="text_3"
             transform="matrix(1.8093439,0,0,1.8093439,-236.49036,-17.396227)"
             style="stroke-linecap:butt;stroke-linejoin:round">
            <!-- 90° -->
            <defs
               id="defs63">
              <path
                 d="m 10.9844,1.51562 0,8.98438 Q 14.7031,8.73438 18.5,7.8125 q 3.8125,-0.92188 7.4844,-0.92188 9.7656,0 14.9062,6.56248 5.1563,6.5625 5.8906,19.9531 -2.8281,-4.2031 -7.1874,-6.4531 -4.3438,-2.25 -9.6094,-2.25 -10.9375,0 -17.3125,6.6094 -6.37502,6.625 -6.37502,18.1094 0,11.2187 6.64062,18 6.6406,6.7969 17.6719,6.7969 12.6562,0 19.3125,-9.7032 6.6719,-9.6875 6.6719,-28.1406 0,-17.2344 -8.1876,-27.51562 -8.1718,-10.28126 -21.9843,-10.28126 -3.7188,0 -7.5313,0.73438 -3.7968,0.734375 -7.9062,2.20312 m 19.625,30.90628 q 6.6406,0 10.5156,4.5312 3.8906,4.5469 3.8906,12.4688 0,7.8593 -3.8906,12.4219 -3.875,4.5624 -10.5156,4.5624 -6.6406,0 -10.5156,-4.5624 -3.875,-4.5626 -3.875,-12.4219 0,-7.9219 3.875,-12.4688 3.875,-4.5312 10.5156,-4.5312"
                 id="DejaVuSans-39"
                 inkscape:connector-curvature="0"
                 style="stroke-linecap:butt;stroke-linejoin:round" />
            </defs>
            <g
               transform="matrix(0.12,0,0,-0.12,285.51375,29.23125)"
               id="g66"
               style="stroke-linecap:butt;stroke-linejoin:round">
              <use
                 xlink:href="#DejaVuSans-39"
                 id="use68"
                 style="stroke-linecap:butt;stroke-linejoin:round"
                 x="0"
                 y="0"
                 width="576"
                 height="432" />
              <use
                 x="63.623047"
                 xlink:href="#DejaVuSans-30"
                 id="use70"
                 style="stroke-linecap:butt;stroke-linejoin:round"
                 y="0"
                 width="576"
                 height="432" />
              <use
                 x="127.24609"
                 xlink:href="#DejaVuSans-b0"
                 id="use72"
                 style="stroke-linecap:butt;stroke-linejoin:round"
                 y="0"
                 width="576"
                 height="432" />
            </g>
          </g>
        </g>
        <g
           id="xtick_4">
          <g
             id="line2d_4">
            <path
               clip-path="url(#p51f193bd26)"
               d=" M295.2 216 L173.012 93.8119"
               style="fill:none;stroke:#000000;stroke-dasharray:1.000000,3.000000;stroke-dashoffset:0.0;stroke-width:0.5;"
               id="path76" />
          </g>
          <g
             id="text_4"
             transform="matrix(1.7786725,0,0,1.7786725,-127.01237,-67.845577)"
             style="stroke-linecap:butt;stroke-linejoin:round">
            <!-- 135° -->
            <defs
               id="defs79">
              <path
                 d="m 12.4062,8.29688 16.1094,0 0,55.62502 -17.5312,-3.5157 0,8.9844 17.4375,3.5156 9.8593,0 0,-64.60932 16.1094,0 0,-8.29688 -41.9844,0 z"
                 id="DejaVuSans-31"
                 inkscape:connector-curvature="0"
                 style="stroke-linecap:butt;stroke-linejoin:round" />
              <path
                 d="M 40.5781,39.3125 Q 47.6562,37.7969 51.625,33 q 3.9844,-4.7812 3.9844,-11.8125 0,-10.7813 -7.4219,-16.70312 -7.4219,-5.90626 -21.0937,-5.90626 -4.5782,0 -9.4376,0.906255 Q 12.7969,0.390625 7.625,2.20312 l 0,9.51568 q 4.0938,-2.39068 8.9688,-3.60942 4.8906,-1.21876 10.2187,-1.21876 9.2656,0 14.125,3.65628 4.8594,3.6562 4.8594,10.6406 0,6.4531 -4.5157,10.0781 -4.5156,3.6406 -12.5624,3.6406 l -8.5,0 0,8.1094 8.8906,0 q 7.2656,0 11.125,2.9063 3.8594,2.9062 3.8594,8.375 0,5.6093 -3.9844,8.6093 -3.9688,3.0157 -11.3906,3.0157 -4.0626,0 -8.7032,-0.8907 -4.6406,-0.875 -10.2031,-2.7187 l 0,8.7813 q 5.625,1.5624 10.5313,2.3437 4.9062,0.7813 9.25,0.7813 11.2343,0 17.7656,-5.1094 6.5468,-5.0938 6.5468,-13.7813 0,-6.0625 -3.4687,-10.2343 -3.4687,-4.1719 -9.8594,-5.7813"
                 id="DejaVuSans-33"
                 inkscape:connector-curvature="0"
                 style="stroke-linecap:butt;stroke-linejoin:round" />
            </defs>
            <g
               transform="matrix(0.12,0,0,-0.12,147.57064,84.904393)"
               id="g83"
               style="stroke-linecap:butt;stroke-linejoin:round">
              <use
                 xlink:href="#DejaVuSans-31"
                 id="use85"
                 style="stroke-linecap:butt;stroke-linejoin:round"
                 x="0"
                 y="0"
                 width="576"
                 height="432" />
              <use
                 x="63.623047"
                 xlink:href="#DejaVuSans-33"
                 id="use87"
                 style="stroke-linecap:butt;stroke-linejoin:round"
                 y="0"
                 width="576"
                 height="432" />
              <use
                 x="127.24609"
                 xlink:href="#DejaVuSans-35"
                 id="use89"
                 style="stroke-linecap:butt;stroke-linejoin:round"
                 y="0"
                 width="576"
                 height="432" />
              <use
                 x="190.86914"
                 xlink:href="#DejaVuSans-b0"
                 id="use91"
                 style="stroke-linecap:butt;stroke-linejoin:round"
                 y="0"
                 width="576"
                 height="432" />
            </g>
          </g>
        </g>
        <g
           id="xtick_5">
          <g
             id="line2d_5">
            <path
               clip-path="url(#p51f193bd26)"
               d=" M295.2 216 L122.4 216"
               style="fill:none;stroke:#000000;stroke-dasharray:1.000000,3.000000;stroke-dashoffset:0.0;stroke-width:0.5;"
               id="path95" />
          </g>
          <g
             id="text_5"
             transform="matrix(1.793215,0,0,1.793215,-95.560064,-174.09631)"
             style="stroke-linecap:butt;stroke-linejoin:round">
            <!-- 180° -->
            <defs
               id="defs98">
              <path
                 d="m 31.7812,34.625 q -7.0312,0 -11.0624,-3.7656 -4.0157,-3.7656 -4.0157,-10.3438 0,-6.5937 4.0157,-10.3594 4.0312,-3.76558 11.0624,-3.76558 7.0313,0 11.0782,3.78128 4.0625,3.7969 4.0625,10.3437 0,6.5782 -4.0313,10.3438 -4.0156,3.7656 -11.1094,3.7656 m -9.8593,4.1875 Q 15.5781,40.375 12.0312,44.7188 8.5,49.0781 8.5,55.3281 q 0,8.7344 6.2188,13.8125 6.2343,5.0782 17.0624,5.0782 10.8907,0 17.0938,-5.0782 6.2031,-5.0781 6.2031,-13.8125 0,-6.25 -3.5469,-10.6093 Q 48,40.375 41.7031,38.8125 q 7.125,-1.6563 11.0938,-6.5 3.9843,-4.8281 3.9843,-11.7969 0,-10.60935 -6.4687,-16.28122 -6.4687,-5.65626 -18.5313,-5.65626 -12.0468,0 -18.5312,5.65626 -6.46875,5.67187 -6.46875,16.28122 0,6.9688 3.99995,11.7969 4.0157,4.8437 11.1407,6.5 m -3.6094,15.5781 q 0,-5.6562 3.5313,-8.8281 3.5468,-3.1719 9.9374,-3.1719 6.3594,0 9.9376,3.1719 3.5937,3.1719 3.5937,8.8281 0,5.6719 -3.5937,8.8438 -3.5782,3.1718 -9.9376,3.1718 -6.3906,0 -9.9374,-3.1718 -3.5313,-3.1719 -3.5313,-8.8438"
                 id="DejaVuSans-38"
                 inkscape:connector-curvature="0"
                 style="stroke-linecap:butt;stroke-linejoin:round" />
            </defs>
            <g
               transform="matrix(0.12,0,0,-0.12,91.8975,219.31125)"
               id="g101"
               style="stroke-linecap:butt;stroke-linejoin:round">
              <use
                 xlink:href="#DejaVuSans-31"
                 id="use103"
                 style="stroke-linecap:butt;stroke-linejoin:round"
                 x="0"
                 y="0"
                 width="576"
                 height="432" />
              <use
                 x="63.623047"
                 xlink:href="#DejaVuSans-38"
                 id="use105"
                 style="stroke-linecap:butt;stroke-linejoin:round"
                 y="0"
                 width="576"
                 height="432" />
              <use
                 x="127.24609"
                 xlink:href="#DejaVuSans-30"
                 id="use107"
                 style="stroke-linecap:butt;stroke-linejoin:round"
                 y="0"
                 width="576"
                 height="432" />
              <use
                 x="190.86914"
                 xlink:href="#DejaVuSans-b0"
                 id="use109"
                 style="stroke-linecap:butt;stroke-linejoin:round"
                 y="0"
                 width="576"
                 height="432" />
            </g>
          </g>
        </g>
        <g
           id="xtick_6">
          <g
             id="line2d_6">
            <path
               clip-path="url(#p51f193bd26)"
               d=" M295.2 216 L173.012 338.188"
               style="fill:none;stroke:#000000;stroke-dasharray:1.000000,3.000000;stroke-dashoffset:0.0;stroke-width:0.5;"
               id="path113" />
          </g>
          <g
             id="text_6"
             transform="matrix(1.793215,0,0,1.793215,-137.80396,-275.8279)"
             style="stroke-linecap:butt;stroke-linejoin:round">
            <!-- 225° -->
            <defs
               id="defs116">
              <path
                 d="m 19.1875,8.29688 34.4219,0 0,-8.29688 -46.28128,0 0,8.29688 Q 12.9375,14.1094 22.625,23.8906 q 9.7031,9.7969 12.1875,12.6406 4.7344,5.3126 6.6094,9 1.8906,3.6876 1.8906,7.25 0,5.8126 -4.0781,9.4688 -4.0782,3.6719 -10.625,3.6719 -4.6406,0 -9.7969,-1.6094 -5.1406,-1.6094 -11,-4.8906 l 0,9.9687 q 5.9531,2.3906 11.125,3.6094 5.1875,1.2188 9.4844,1.2188 11.3281,0 18.0625,-5.6719 6.7344,-5.6563 6.7344,-15.125 0,-4.5 -1.6876,-8.5313 Q 49.8594,40.875 45.4062,35.4062 44.1875,33.9844 37.6406,27.2188 31.1094,20.4531 19.1875,8.29688"
                 id="DejaVuSans-32"
                 inkscape:connector-curvature="0"
                 style="stroke-linecap:butt;stroke-linejoin:round" />
            </defs>
            <g
               transform="matrix(0.12,0,0,-0.12,147.35127,353.71811)"
               id="g119"
               style="stroke-linecap:butt;stroke-linejoin:round">
              <use
                 xlink:href="#DejaVuSans-32"
                 id="use121"
                 style="stroke-linecap:butt;stroke-linejoin:round"
                 x="0"
                 y="0"
                 width="576"
                 height="432" />
              <use
                 x="63.623047"
                 xlink:href="#DejaVuSans-32"
                 id="use123"
                 style="stroke-linecap:butt;stroke-linejoin:round"
                 y="0"
                 width="576"
                 height="432" />
              <use
                 x="127.24609"
                 xlink:href="#DejaVuSans-35"
                 id="use125"
                 style="stroke-linecap:butt;stroke-linejoin:round"
                 y="0"
                 width="576"
                 height="432" />
              <use
                 x="190.86914"
                 xlink:href="#DejaVuSans-b0"
                 id="use127"
                 style="stroke-linecap:butt;stroke-linejoin:round"
                 y="0"
                 width="576"
                 height="432" />
            </g>
          </g>
        </g>
        <g
           id="xtick_7">
          <g
             id="line2d_7">
            <path
               clip-path="url(#p51f193bd26)"
               d=" M295.2 216 L295.2 388.8"
               style="fill:none;stroke:#000000;stroke-dasharray:1.000000,3.000000;stroke-dashoffset:0.0;stroke-width:0.5;"
               id="path131" />
          </g>
          <g
             id="text_7"
             transform="matrix(1.793215,0,0,1.793215,-233.7923,-324.87061)"
             style="stroke-linecap:butt;stroke-linejoin:round">
            <!-- 270° -->
            <defs
               id="defs134">
              <path
                 d="m 8.20312,72.9062 46.87498,0 0,-4.2031 L 28.6094,0 18.3125,0 l 24.9063,64.5938 -35.01568,0 z"
                 id="DejaVuSans-37"
                 inkscape:connector-curvature="0"
                 style="stroke-linecap:butt;stroke-linejoin:round" />
            </defs>
            <g
               transform="matrix(0.12,0,0,-0.12,281.75812,409.39125)"
               id="g137"
               style="stroke-linecap:butt;stroke-linejoin:round">
              <use
                 xlink:href="#DejaVuSans-32"
                 id="use139"
                 style="stroke-linecap:butt;stroke-linejoin:round"
                 x="0"
                 y="0"
                 width="576"
                 height="432" />
              <use
                 x="63.623047"
                 xlink:href="#DejaVuSans-37"
                 id="use141"
                 style="stroke-linecap:butt;stroke-linejoin:round"
                 y="0"
                 width="576"
                 height="432" />
              <use
                 x="127.24609"
                 xlink:href="#DejaVuSans-30"
                 id="use143"
                 style="stroke-linecap:butt;stroke-linejoin:round"
                 y="0"
                 width="576"
                 height="432" />
              <use
                 x="190.86914"
                 xlink:href="#DejaVuSans-b0"
                 id="use145"
                 style="stroke-linecap:butt;stroke-linejoin:round"
                 y="0"
                 width="576"
                 height="432" />
            </g>
          </g>
        </g>
        <g
           id="xtick_8">
          <g
             id="line2d_8">
            <path
               clip-path="url(#p51f193bd26)"
               d=" M295.2 216 L417.388 338.188"
               style="fill:none;stroke:#000000;stroke-dasharray:1.000000,3.000000;stroke-dashoffset:0.0;stroke-width:0.5;"
               id="path149" />
          </g>
          <g
             id="text_8"
             transform="matrix(1.793215,0,0,1.793215,-324.44822,-279.10984)"
             style="stroke-linecap:butt;stroke-linejoin:round">
            <!-- 315° -->
            <g
               transform="matrix(0.12,0,0,-0.12,416.18279,353.71811)"
               id="g152"
               style="stroke-linecap:butt;stroke-linejoin:round">
              <use
                 xlink:href="#DejaVuSans-33"
                 id="use154"
                 style="stroke-linecap:butt;stroke-linejoin:round"
                 x="0"
                 y="0"
                 width="576"
                 height="432" />
              <use
                 x="63.623047"
                 xlink:href="#DejaVuSans-31"
                 id="use156"
                 style="stroke-linecap:butt;stroke-linejoin:round"
                 y="0"
                 width="576"
                 height="432" />
              <use
                 x="127.24609"
                 xlink:href="#DejaVuSans-35"
                 id="use158"
                 style="stroke-linecap:butt;stroke-linejoin:round"
                 y="0"
                 width="576"
                 height="432" />
              <use
                 x="190.86914"
                 xlink:href="#DejaVuSans-b0"
                 id="use160"
                 style="stroke-linecap:butt;stroke-linejoin:round"
                 y="0"
                 width="576"
                 height="432" />
            </g>
          </g>
        </g>
      </g>
      <g
         id="matplotlib.axis_2">
        <g
           id="ytick_1">
          <g
             id="line2d_9">
            <path
               clip-path="url(#p51f193bd26)"
               d=" M329.76 216 L329.739 214.794 L329.676 213.589 L329.424 211.19 L329.005 208.815 L328.421 206.474 L327.676 204.18 L326.772 201.943 L325.715 199.775 L324.509 197.686 L323.16 195.686 L321.674 193.785 L320.06 191.993 L318.325 190.317 L316.477 188.766 L314.526 187.348 L312.48 186.07 L310.35 184.938 L308.146 183.957 L305.88 183.131 L303.561 182.467 L301.201 181.965 L298.813 181.629 L296.406 181.461 L293.994 181.461 L291.587 181.629 L289.199 181.965 L286.839 182.467 L284.52 183.131 L282.254 183.957 L280.05 184.938 L277.92 186.07 L275.874 187.348 L273.923 188.766 L272.075 190.317 L270.34 191.993 L268.726 193.785 L267.24 195.686 L265.891 197.686 L264.685 199.775 L263.628 201.943 L262.724 204.18 L261.979 206.474 L261.395 208.815 L260.976 211.19 L260.724 213.589 L260.64 216 L260.724 218.411 L260.976 220.81 L261.395 223.185 L261.979 225.526 L262.724 227.82 L263.628 230.057 L264.685 232.225 L265.891 234.314 L267.24 236.314 L268.726 238.215 L270.34 240.007 L272.075 241.683 L273.923 243.234 L275.874 244.652 L277.92 245.93 L280.05 247.062 L282.254 248.043 L284.52 248.869 L286.839 249.533 L289.199 250.035 L291.587 250.371 L293.994 250.539 L296.406 250.539 L298.813 250.371 L301.201 250.035 L303.561 249.533 L305.88 248.869 L308.146 248.043 L310.35 247.062 L312.48 245.93 L314.526 244.652 L316.477 243.234 L318.325 241.683 L320.06 240.007 L321.674 238.215 L323.16 236.314 L324.509 234.314 L325.715 232.225 L326.772 230.057 L327.676 227.82 L328.421 225.526 L329.005 223.185 L329.424 220.81 L329.676 218.411 L329.76 216 L329.76 216"
               style="fill:none;stroke:#000000;stroke-dasharray:1.000000,3.000000;stroke-dashoffset:0.0;stroke-width:0.5;"
               id="path165" />
          </g>
          <g
             id="text_9"
             transform="matrix(1.528807,0,0,1.528807,-173.47805,-105.99908)"
             style="stroke-linecap:butt;stroke-linejoin:round">
            <!-- 50 -->
            <g
               transform="matrix(0.12,0,0,-0.12,327.12928,200.27884)"
               id="g168"
               style="stroke-linecap:butt;stroke-linejoin:round">
              <use
                 xlink:href="#DejaVuSans-35"
                 id="use170"
                 style="stroke-linecap:butt;stroke-linejoin:round"
                 x="0"
                 y="0"
                 width="576"
                 height="432" />
              <use
                 x="63.623047"
                 xlink:href="#DejaVuSans-30"
                 id="use172"
                 style="stroke-linecap:butt;stroke-linejoin:round"
                 y="0"
                 width="576"
                 height="432" />
            </g>
          </g>
        </g>
        <g
           id="ytick_2">
          <g
             id="line2d_10">
            <path
               clip-path="url(#p51f193bd26)"
               d=" M364.32 216 L364.278 213.588 L364.152 211.178 L363.647 206.38 L362.81 201.629 L361.642 196.948 L360.152 192.36 L358.344 187.886 L356.229 183.55 L353.817 179.372 L351.119 175.372 L348.149 171.571 L344.921 167.985 L341.45 164.634 L337.755 161.533 L333.851 158.697 L329.76 156.14 L325.5 153.875 L321.093 151.913 L316.559 150.263 L311.922 148.933 L307.203 147.93 L302.425 147.259 L297.612 146.922 L292.788 146.922 L287.975 147.259 L283.197 147.93 L278.478 148.933 L273.841 150.263 L269.307 151.913 L264.9 153.875 L260.64 156.14 L256.549 158.697 L252.645 161.533 L248.95 164.634 L245.479 167.985 L242.251 171.571 L239.281 175.372 L236.583 179.372 L234.171 183.55 L232.056 187.886 L230.248 192.36 L228.758 196.948 L227.59 201.629 L226.753 206.38 L226.248 211.178 L226.08 216 L226.248 220.822 L226.753 225.62 L227.59 230.371 L228.758 235.052 L230.248 239.64 L232.056 244.114 L234.171 248.45 L236.583 252.628 L239.281 256.628 L242.251 260.429 L245.479 264.015 L248.95 267.366 L252.645 270.467 L256.549 273.303 L260.64 275.86 L264.9 278.125 L269.307 280.087 L273.841 281.737 L278.478 283.067 L283.197 284.07 L287.975 284.741 L292.788 285.078 L297.612 285.078 L302.425 284.741 L307.203 284.07 L311.922 283.067 L316.559 281.737 L321.093 280.087 L325.5 278.125 L329.76 275.86 L333.851 273.303 L337.755 270.467 L341.45 267.366 L344.921 264.015 L348.149 260.429 L351.119 256.628 L353.817 252.628 L356.229 248.45 L358.344 244.114 L360.152 239.64 L361.642 235.052 L362.81 230.371 L363.647 225.62 L364.152 220.822 L364.32 216 L364.32 216"
               style="fill:none;stroke:#000000;stroke-dasharray:1.000000,3.000000;stroke-dashoffset:0.0;stroke-width:0.5;"
               id="path176" />
          </g>
          <g
             id="text_10"
             transform="matrix(1.352535,0,0,1.352535,-127.04539,-66.002984)"
             style="stroke-linecap:butt;stroke-linejoin:round">
            <!-- 100 -->
            <g
               transform="matrix(0.12,0,0,-0.12,359.05855,187.0533)"
               id="g179"
               style="stroke-linecap:butt;stroke-linejoin:round">
              <use
                 xlink:href="#DejaVuSans-31"
                 id="use181"
                 style="stroke-linecap:butt;stroke-linejoin:round"
                 x="0"
                 y="0"
                 width="576"
                 height="432" />
              <use
                 x="63.623047"
                 xlink:href="#DejaVuSans-30"
                 id="use183"
                 style="stroke-linecap:butt;stroke-linejoin:round"
                 y="0"
                 width="576"
                 height="432" />
              <use
                 x="127.24609"
                 xlink:href="#DejaVuSans-30"
                 id="use185"
                 style="stroke-linecap:butt;stroke-linejoin:round"
                 y="0"
                 width="576"
                 height="432" />
            </g>
          </g>
        </g>
        <g
           id="ytick_3">
          <g
             id="line2d_11">
            <path
               clip-path="url(#p51f193bd26)"
               d=" M398.88 216 L398.817 212.382 L398.627 208.768 L398.312 205.162 L397.871 201.571 L397.305 197.996 L396.614 194.444 L395.8 190.918 L394.864 187.422 L393.806 183.961 L392.627 180.539 L391.33 177.161 L389.916 173.83 L388.387 170.55 L386.744 167.325 L384.99 164.16 L383.126 161.058 L381.155 158.023 L379.079 155.058 L376.901 152.168 L374.623 149.356 L372.249 146.625 L369.781 143.978 L367.222 141.419 L364.575 138.951 L361.844 136.577 L359.032 134.299 L356.142 132.121 L353.177 130.045 L350.142 128.074 L347.04 126.21 L343.875 124.456 L340.65 122.813 L337.37 121.284 L334.039 119.87 L330.661 118.573 L327.239 117.394 L323.778 116.336 L320.282 115.4 L316.756 114.586 L313.204 113.895 L309.629 113.329 L306.038 112.888 L302.432 112.573 L298.818 112.383 L295.2 112.32 L291.582 112.383 L287.968 112.573 L284.362 112.888 L280.771 113.329 L277.196 113.895 L273.644 114.586 L270.118 115.4 L266.622 116.336 L263.161 117.394 L259.739 118.573 L256.361 119.87 L253.03 121.284 L249.75 122.813 L246.525 124.456 L243.36 126.21 L240.258 128.074 L237.223 130.045 L234.258 132.121 L231.368 134.299 L228.556 136.577 L225.825 138.951 L223.178 141.419 L220.619 143.978 L218.151 146.625 L215.777 149.356 L213.499 152.168 L211.321 155.058 L209.245 158.023 L207.274 161.058 L205.41 164.16 L203.656 167.325 L202.013 170.55 L200.484 173.83 L199.07 177.161 L197.773 180.539 L196.594 183.961 L195.536 187.422 L194.6 190.918 L193.786 194.444 L193.095 197.996 L192.529 201.571 L192.088 205.162 L191.773 208.768 L191.583 212.382 L191.52 216 L191.583 219.618 L191.773 223.232 L192.088 226.838 L192.529 230.429 L193.095 234.004 L193.786 237.556 L194.6 241.082 L195.536 244.578 L196.594 248.039 L197.773 251.461 L199.07 254.839 L200.484 258.17 L202.013 261.45 L203.656 264.675 L205.41 267.84 L207.274 270.942 L209.245 273.977 L211.321 276.942 L213.499 279.832 L215.777 282.644 L218.151 285.375 L220.619 288.022 L223.178 290.581 L225.825 293.049 L228.556 295.423 L231.368 297.701 L234.258 299.879 L237.223 301.955 L240.258 303.926 L243.36 305.79 L246.525 307.544 L249.75 309.187 L253.03 310.716 L256.361 312.13 L259.739 313.427 L263.161 314.606 L266.622 315.664 L270.118 316.6 L273.644 317.414 L277.196 318.105 L280.771 318.671 L284.362 319.112 L287.968 319.427 L291.582 319.617 L295.2 319.68 L298.818 319.617 L302.432 319.427 L306.038 319.112 L309.629 318.671 L313.204 318.105 L316.756 317.414 L320.282 316.6 L323.778 315.664 L327.239 314.606 L330.661 313.427 L334.039 312.13 L337.37 310.716 L340.65 309.187 L343.875 307.544 L347.04 305.79 L350.142 303.926 L353.177 301.955 L356.142 299.879 L359.032 297.701 L361.844 295.423 L364.575 293.049 L367.222 290.581 L369.781 288.022 L372.249 285.375 L374.623 282.644 L376.901 279.832 L379.079 276.942 L381.155 273.977 L383.126 270.942 L384.99 267.84 L386.744 264.675 L388.387 261.45 L389.916 258.17 L391.33 254.839 L392.627 251.461 L393.806 248.039 L394.864 244.578 L395.8 241.082 L396.614 237.556 L397.305 234.004 L397.871 230.429 L398.312 226.838 L398.627 223.232 L398.817 219.618 L398.88 216 L398.88 216"
               style="fill:none;stroke:#000000;stroke-dasharray:1.000000,3.000000;stroke-dashoffset:0.0;stroke-width:0.5;"
               id="path189" />
          </g>
          <g
             id="text_11"
             transform="matrix(1.528807,0,0,1.528807,-207.45413,-92.01156)"
             style="stroke-linecap:butt;stroke-linejoin:round">
            <!-- 150 -->
            <g
               transform="matrix(0.12,0,0,-0.12,390.98783,173.82776)"
               id="g192"
               style="stroke-linecap:butt;stroke-linejoin:round">
              <use
                 xlink:href="#DejaVuSans-31"
                 id="use194"
                 style="stroke-linecap:butt;stroke-linejoin:round"
                 x="0"
                 y="0"
                 width="576"
                 height="432" />
              <use
                 x="63.623047"
                 xlink:href="#DejaVuSans-35"
                 id="use196"
                 style="stroke-linecap:butt;stroke-linejoin:round"
                 y="0"
                 width="576"
                 height="432" />
              <use
                 x="127.24609"
                 xlink:href="#DejaVuSans-30"
                 id="use198"
                 style="stroke-linecap:butt;stroke-linejoin:round"
                 y="0"
                 width="576"
                 height="432" />
            </g>
          </g>
        </g>
        <g
           id="ytick_4">
          <g
             id="line2d_12">
            <path
               clip-path="url(#p51f193bd26)"
               d=" M433.44 216 L433.356 211.175 L433.103 206.357 L432.683 201.55 L432.095 196.761 L431.34 191.995 L430.419 187.258 L429.334 182.557 L428.085 177.896 L426.674 173.281 L425.103 168.719 L423.374 164.214 L421.489 159.773 L419.449 155.4 L417.259 151.1 L414.919 146.88 L412.434 142.744 L409.806 138.697 L407.039 134.745 L404.135 130.891 L401.098 127.141 L397.932 123.499 L394.642 119.97 L391.23 116.558 L387.701 113.268 L384.059 110.102 L380.309 107.065 L376.455 104.161 L372.503 101.394 L368.456 98.7658 L364.32 96.2806 L360.1 93.9413 L355.8 91.7507 L351.427 89.7115 L346.986 87.8261 L342.481 86.0969 L337.919 84.5259 L333.304 83.1152 L328.643 81.8663 L323.942 80.7809 L319.205 79.8602 L314.439 79.1053 L309.65 78.5173 L304.843 78.0967 L300.025 77.8442 L295.2 77.76 L290.375 77.8442 L285.557 78.0967 L280.75 78.5173 L275.961 79.1053 L271.195 79.8602 L266.458 80.7809 L261.757 81.8663 L257.096 83.1152 L252.481 84.5259 L247.919 86.0969 L243.414 87.8261 L238.973 89.7115 L234.6 91.7507 L230.3 93.9413 L226.08 96.2806 L221.944 98.7658 L217.897 101.394 L213.945 104.161 L210.091 107.065 L206.341 110.102 L202.699 113.268 L199.17 116.558 L195.758 119.97 L192.468 123.499 L189.302 127.141 L186.265 130.891 L183.361 134.745 L180.594 138.697 L177.966 142.744 L175.481 146.88 L173.141 151.1 L170.951 155.4 L168.911 159.773 L167.026 164.214 L165.297 168.719 L163.726 173.281 L162.315 177.896 L161.066 182.557 L159.981 187.258 L159.06 191.995 L158.305 196.761 L157.717 201.55 L157.297 206.357 L157.044 211.175 L156.96 216 L157.044 220.825 L157.297 225.643 L157.717 230.45 L158.305 235.239 L159.06 240.005 L159.981 244.742 L161.066 249.443 L162.315 254.104 L163.726 258.719 L165.297 263.281 L167.026 267.786 L168.911 272.227 L170.951 276.6 L173.141 280.9 L175.481 285.12 L177.966 289.256 L180.594 293.303 L183.361 297.255 L186.265 301.109 L189.302 304.859 L192.468 308.501 L195.758 312.03 L199.17 315.442 L202.699 318.732 L206.341 321.898 L210.091 324.935 L213.945 327.839 L217.897 330.606 L221.944 333.234 L226.08 335.719 L230.3 338.059 L234.6 340.249 L238.973 342.289 L243.414 344.174 L247.919 345.903 L252.481 347.474 L257.096 348.885 L261.757 350.134 L266.458 351.219 L271.195 352.14 L275.961 352.895 L280.75 353.483 L285.557 353.903 L290.375 354.156 L295.2 354.24 L300.025 354.156 L304.843 353.903 L309.65 353.483 L314.439 352.895 L319.205 352.14 L323.942 351.219 L328.643 350.134 L333.304 348.885 L337.919 347.474 L342.481 345.903 L346.986 344.174 L351.427 342.289 L355.8 340.249 L360.1 338.059 L364.32 335.719 L368.456 333.234 L372.503 330.606 L376.455 327.839 L380.309 324.935 L384.059 321.898 L387.701 318.732 L391.23 315.442 L394.642 312.03 L397.932 308.501 L401.098 304.859 L404.135 301.109 L407.039 297.255 L409.806 293.303 L412.434 289.256 L414.919 285.12 L417.259 280.9 L419.449 276.6 L421.489 272.227 L423.374 267.786 L425.103 263.281 L426.674 258.719 L428.085 254.104 L429.334 249.443 L430.419 244.742 L431.34 240.005 L432.095 235.239 L432.683 230.45 L433.103 225.643 L433.356 220.825 L433.44 216 L433.44 216"
               style="fill:none;stroke:#000000;stroke-dasharray:1.000000,3.000000;stroke-dashoffset:0.0;stroke-width:0.5;"
               id="path202" />
          </g>
          <g
             id="text_12"
             transform="matrix(1.528807,0,0,1.528807,-225.70654,-88.217802)"
             style="stroke-linecap:butt;stroke-linejoin:round">
            <!-- 200 -->
            <g
               transform="matrix(0.12,0,0,-0.12,422.91711,160.60222)"
               id="g205"
               style="stroke-linecap:butt;stroke-linejoin:round">
              <use
                 xlink:href="#DejaVuSans-32"
                 id="use207"
                 style="stroke-linecap:butt;stroke-linejoin:round"
                 x="0"
                 y="0"
                 width="576"
                 height="432" />
              <use
                 x="63.623047"
                 xlink:href="#DejaVuSans-30"
                 id="use209"
                 style="stroke-linecap:butt;stroke-linejoin:round"
                 y="0"
                 width="576"
                 height="432" />
              <use
                 x="127.24609"
                 xlink:href="#DejaVuSans-30"
                 id="use211"
                 style="stroke-linecap:butt;stroke-linejoin:round"
                 y="0"
                 width="576"
                 height="432" />
            </g>
          </g>
        </g>
        <g
           id="ytick_5">
          <g
             id="line2d_13">
            <path
               clip-path="url(#p51f193bd26)"
               d=" M468 216 L467.895 209.969 L467.579 203.946 L467.053 197.937 L466.318 191.951 L465.375 185.994 L464.224 180.073 L462.867 174.196 L461.306 168.37 L459.543 162.602 L457.579 156.899 L455.417 151.268 L453.061 145.716 L450.512 140.249 L447.773 134.875 L444.849 129.6 L441.743 124.43 L438.458 119.371 L434.998 114.431 L431.368 109.614 L427.572 104.926 L423.615 100.374 L419.502 95.963 L415.237 91.6981 L410.826 87.5846 L406.274 83.6275 L401.586 79.8317 L396.769 76.2019 L391.829 72.7423 L386.77 69.4573 L381.6 66.3508 L376.325 63.4267 L370.951 60.6884 L365.484 58.1393 L359.932 55.7826 L354.301 53.6211 L348.598 51.6574 L342.83 49.894 L337.004 48.3329 L331.127 46.9761 L325.206 45.8252 L319.249 44.8817 L313.263 44.1466 L307.254 43.6209 L301.231 43.3053 L295.2 43.2 L289.169 43.3053 L283.146 43.6209 L277.137 44.1466 L271.151 44.8817 L265.194 45.8252 L259.273 46.9761 L253.396 48.3329 L247.57 49.894 L241.802 51.6574 L236.099 53.6211 L230.468 55.7826 L224.916 58.1393 L219.449 60.6884 L214.075 63.4267 L208.8 66.3508 L203.63 69.4573 L198.571 72.7423 L193.631 76.2019 L188.814 79.8317 L184.126 83.6275 L179.574 87.5846 L175.163 91.6981 L170.898 95.963 L166.785 100.374 L162.828 104.926 L159.032 109.614 L155.402 114.431 L151.942 119.371 L148.657 124.43 L145.551 129.6 L142.627 134.875 L139.888 140.249 L137.339 145.716 L134.983 151.268 L132.821 156.899 L130.857 162.602 L129.094 168.37 L127.533 174.196 L126.176 180.073 L125.025 185.994 L124.082 191.951 L123.347 197.937 L122.821 203.946 L122.505 209.969 L122.4 216 L122.505 222.031 L122.821 228.054 L123.347 234.063 L124.082 240.049 L125.025 246.006 L126.176 251.927 L127.533 257.804 L129.094 263.63 L130.857 269.398 L132.821 275.101 L134.983 280.732 L137.339 286.284 L139.888 291.751 L142.627 297.125 L145.551 302.4 L148.657 307.57 L151.942 312.629 L155.402 317.569 L159.032 322.386 L162.828 327.074 L166.785 331.626 L170.898 336.037 L175.163 340.302 L179.574 344.415 L184.126 348.372 L188.814 352.168 L193.631 355.798 L198.571 359.258 L203.63 362.543 L208.8 365.649 L214.075 368.573 L219.449 371.312 L224.916 373.861 L230.468 376.217 L236.099 378.379 L241.802 380.343 L247.57 382.106 L253.396 383.667 L259.273 385.024 L265.194 386.175 L271.151 387.118 L277.137 387.853 L283.146 388.379 L289.169 388.695 L295.2 388.8 L301.231 388.695 L307.254 388.379 L313.263 387.853 L319.249 387.118 L325.206 386.175 L331.127 385.024 L337.004 383.667 L342.83 382.106 L348.598 380.343 L354.301 378.379 L359.932 376.217 L365.484 373.861 L370.951 371.312 L376.325 368.573 L381.6 365.649 L386.77 362.543 L391.829 359.258 L396.769 355.798 L401.586 352.168 L406.274 348.372 L410.826 344.415 L415.237 340.302 L419.502 336.037 L423.615 331.626 L427.572 327.074 L431.368 322.386 L434.998 317.569 L438.458 312.629 L441.743 307.57 L444.849 302.4 L447.773 297.125 L450.512 291.751 L453.061 286.284 L455.417 280.732 L457.579 275.101 L459.543 269.398 L461.306 263.63 L462.867 257.804 L464.224 251.927 L465.375 246.006 L466.318 240.049 L467.053 234.063 L467.579 228.054 L467.895 222.031 L468 216 L468 216"
               style="fill:none;stroke:#000000;stroke-dasharray:1.000000,3.000000;stroke-dashoffset:0.0;stroke-width:0.5;"
               id="path215" />
          </g>
          <g
             id="text_13"
             transform="matrix(1.528807,0,0,1.528807,-240.99096,-81.224045)"
             style="stroke-linecap:butt;stroke-linejoin:round">
            <!-- 250 -->
            <g
               transform="matrix(0.12,0,0,-0.12,454.84638,147.37668)"
               id="g218"
               style="stroke-linecap:butt;stroke-linejoin:round">
              <use
                 xlink:href="#DejaVuSans-32"
                 id="use220"
                 style="stroke-linecap:butt;stroke-linejoin:round"
                 x="0"
                 y="0"
                 width="576"
                 height="432" />
              <use
                 x="63.623047"
                 xlink:href="#DejaVuSans-35"
                 id="use222"
                 style="stroke-linecap:butt;stroke-linejoin:round"
                 y="0"
                 width="576"
                 height="432" />
              <use
                 x="127.24609"
                 xlink:href="#DejaVuSans-30"
                 id="use224"
                 style="stroke-linecap:butt;stroke-linejoin:round"
                 y="0"
                 width="576"
                 height="432" />
            </g>
          </g>
        </g>
      </g>
      <g
         id="patch_6">
        <path
           d=" M295.2 388.8 C341.027 388.8 384.983 370.593 417.388 338.188 C449.793 305.783 468 261.827 468 216 C468 170.173 449.793 126.217 417.388 93.8119 C384.983 61.4073 341.027 43.2 295.2 43.2 C249.373 43.2 205.417 61.4073 173.012 93.8119 C140.607 126.217 122.4 170.173 122.4 216 C122.4 261.827 140.607 305.783 173.012 338.188 C205.417 370.593 249.373 388.8 295.2 388.8 z "
           style="fill:none;stroke:#000000;"
           id="path227" />
      </g>
    </g>
  </g>
  <defs
     id="defs229">
    <clipPath
       id="p51f193bd26">
      <path
         d=" M295.2 388.8 C341.027 388.8 384.983 370.593 417.388 338.188 C449.793 305.783 468 261.827 468 216 C468 170.173 449.793 126.217 417.388 93.8119 C384.983 61.4073 341.027 43.2 295.2 43.2 C249.373 43.2 205.417 61.4073 173.012 93.8119 C140.607 126.217 122.4 170.173 122.4 216 C122.4 261.827 140.607 305.783 173.012 338.188 C205.417 370.593 249.373 388.8 295.2 388.8 z "
         id="path232" />
    </clipPath>
  </defs>
</svg>
